<?xml version="1.0" encoding="utf-8"?>
<!-- Generator: Adobe Illustrator 17.0.0, SVG Export Plug-In . SVG Version: 6.00 Build 0)  -->
<!DOCTYPE svg PUBLIC "-//W3C//DTD SVG 1.1//EN" "http://www.w3.org/Graphics/SVG/1.1/DTD/svg11.dtd">
<svg version="1.1" id="Layer_1" xmlns="http://www.w3.org/2000/svg" xmlns:xlink="http://www.w3.org/1999/xlink" x="0px" y="0px"
	 width="313.332px" height="126px" viewBox="0 0 313.332 126" enable-background="new 0 0 313.332 126" xml:space="preserve">
<g>
	<path fill-rule="evenodd" clip-rule="evenodd" fill="#3A99D8" d="M313.332,12.6c0-6.954-5.646-12.6-12.6-12.6h-190.8
		c-6.954,0-12.6,5.646-12.6,12.6v100.8c0,6.954,5.646,12.6,12.6,12.6h190.8c6.954,0,12.6-5.646,12.6-12.6V12.6L313.332,12.6z"/>
	<path fill="#FFFFFF" d="M224.55,105.717h-6.089V20.093h6.089v17.315C231.019,24.469,242.055,18,257.658,18
		c10.655,0,19.598,3.679,26.829,11.036c7.23,7.357,10.845,16.3,10.845,26.829v49.852h-6.088V55.865
		c0-8.753-3.077-16.364-9.229-22.833c-6.152-6.47-13.604-9.704-22.357-9.704c-8.753,0-16.459,3.234-23.118,9.704
		c-6.66,6.469-9.99,14.08-9.99,22.833V105.717L224.55,105.717z"/>
	<path fill="#FFFFFF" d="M128.461,94.205c-8.752-9.07-13.129-19.63-13.129-31.681c0-12.05,4.44-22.484,13.32-31.3
		C137.531,22.408,148.218,18,160.713,18c12.495,0,23.15,4.408,31.966,13.224c8.816,8.816,13.224,19.281,13.224,31.395
		c0,12.115-4.313,22.675-12.939,31.681c-8.625,9.007-19.09,13.51-31.395,13.51h-1.712
		C147.679,107.81,137.214,103.275,128.461,94.205L128.461,94.205z M188.303,35.125c-7.675-7.865-16.84-11.797-27.495-11.797
		s-19.884,3.964-27.685,11.892c-7.801,7.928-11.702,17.22-11.702,27.875c0,10.656,3.901,19.884,11.702,27.685
		c7.801,7.801,17.061,11.702,27.78,11.702c10.719,0,19.884-3.901,27.495-11.702c7.611-7.801,11.416-17.061,11.416-27.78
		S195.977,42.989,188.303,35.125L188.303,35.125z"/>
	<path fill="#445F73" d="M46.617,108h-1.712c-12.051,0-22.548-4.535-31.491-13.605C4.471,85.326,0,74.765,0,62.715
		C0,50.664,4.439,40.23,13.319,31.414c8.879-8.816,19.852-13.224,32.917-13.224c13.066,0,24.292,5.201,33.679,15.603L20.169,92.778
		c8.245,6.596,16.173,9.894,23.784,9.894c7.611,0,14.429-1.744,20.455-5.232c6.025-3.489,11.004-8.15,14.936-13.985v9.704
		C70.338,103.053,59.429,108,46.617,108L46.617,108z M17.79,35.22C9.989,43.021,6.088,51.996,6.088,62.144
		c0,10.148,3.362,19.027,10.085,26.638l55.37-54.989c-7.865-6.85-16.839-10.275-26.924-10.275
		C34.535,23.518,25.592,27.419,17.79,35.22L17.79,35.22z"/>
</g>
</svg>
